<mxfile host="app.diagrams.net" modified="2022-11-25T23:37:42.602Z" agent="5.0 (Windows NT 10.0; Win64; x64) AppleWebKit/537.36 (KHTML, like Gecko) Chrome/106.0.0.0 Safari/537.36 OPR/92.0.0.0 (Edition std-1)" etag="GBSpBNdC9ALfbvgrVTxD" version="20.6.0" type="github" pages="2">
  <diagram id="qBJyMc_533hRYf0EZjbL" name="Página-1">
    <mxGraphModel dx="2208" dy="795" grid="1" gridSize="10" guides="1" tooltips="1" connect="1" arrows="1" fold="1" page="1" pageScale="1" pageWidth="827" pageHeight="1169" math="0" shadow="0">
      <root>
        <mxCell id="0" />
        <mxCell id="1" parent="0" />
        <mxCell id="aNA76xLXzrA5z5TwCyWi-19" style="edgeStyle=orthogonalEdgeStyle;rounded=0;orthogonalLoop=1;jettySize=auto;html=1;exitX=0.75;exitY=1;exitDx=0;exitDy=0;entryX=0.045;entryY=0.553;entryDx=0;entryDy=0;entryPerimeter=0;" parent="1" source="aNA76xLXzrA5z5TwCyWi-4" target="aNA76xLXzrA5z5TwCyWi-9" edge="1">
          <mxGeometry relative="1" as="geometry">
            <Array as="points">
              <mxPoint x="90" y="405" />
              <mxPoint x="271" y="405" />
            </Array>
          </mxGeometry>
        </mxCell>
        <mxCell id="aNA76xLXzrA5z5TwCyWi-27" style="edgeStyle=orthogonalEdgeStyle;rounded=0;orthogonalLoop=1;jettySize=auto;html=1;exitX=0.25;exitY=1;exitDx=0;exitDy=0;" parent="1" source="aNA76xLXzrA5z5TwCyWi-4" target="aNA76xLXzrA5z5TwCyWi-24" edge="1">
          <mxGeometry relative="1" as="geometry" />
        </mxCell>
        <mxCell id="aNA76xLXzrA5z5TwCyWi-47" style="edgeStyle=orthogonalEdgeStyle;rounded=0;orthogonalLoop=1;jettySize=auto;html=1;" parent="1" source="aNA76xLXzrA5z5TwCyWi-4" target="aNA76xLXzrA5z5TwCyWi-45" edge="1">
          <mxGeometry relative="1" as="geometry">
            <Array as="points">
              <mxPoint x="60" y="70" />
            </Array>
          </mxGeometry>
        </mxCell>
        <mxCell id="aNA76xLXzrA5z5TwCyWi-48" style="edgeStyle=orthogonalEdgeStyle;rounded=0;orthogonalLoop=1;jettySize=auto;html=1;entryX=0;entryY=0.75;entryDx=0;entryDy=0;" parent="1" source="aNA76xLXzrA5z5TwCyWi-4" target="aNA76xLXzrA5z5TwCyWi-44" edge="1">
          <mxGeometry relative="1" as="geometry" />
        </mxCell>
        <mxCell id="aNA76xLXzrA5z5TwCyWi-49" style="edgeStyle=orthogonalEdgeStyle;rounded=0;orthogonalLoop=1;jettySize=auto;html=1;entryX=0;entryY=0.5;entryDx=0;entryDy=0;" parent="1" source="aNA76xLXzrA5z5TwCyWi-4" target="aNA76xLXzrA5z5TwCyWi-46" edge="1">
          <mxGeometry relative="1" as="geometry" />
        </mxCell>
        <mxCell id="aNA76xLXzrA5z5TwCyWi-4" value="Consulta" style="rounded=1;whiteSpace=wrap;html=1;arcSize=0;" parent="1" vertex="1">
          <mxGeometry y="130" width="120" height="60" as="geometry" />
        </mxCell>
        <mxCell id="aNA76xLXzrA5z5TwCyWi-16" style="edgeStyle=orthogonalEdgeStyle;rounded=0;orthogonalLoop=1;jettySize=auto;html=1;" parent="1" source="aNA76xLXzrA5z5TwCyWi-5" target="aNA76xLXzrA5z5TwCyWi-8" edge="1">
          <mxGeometry relative="1" as="geometry">
            <Array as="points">
              <mxPoint x="-560" y="530" />
              <mxPoint x="-175" y="530" />
            </Array>
          </mxGeometry>
        </mxCell>
        <mxCell id="aNA76xLXzrA5z5TwCyWi-31" style="edgeStyle=orthogonalEdgeStyle;rounded=0;orthogonalLoop=1;jettySize=auto;html=1;exitX=1;exitY=0.25;exitDx=0;exitDy=0;" parent="1" source="aNA76xLXzrA5z5TwCyWi-5" target="aNA76xLXzrA5z5TwCyWi-30" edge="1">
          <mxGeometry relative="1" as="geometry">
            <Array as="points">
              <mxPoint x="-445" y="335" />
              <mxPoint x="-445" y="340" />
            </Array>
          </mxGeometry>
        </mxCell>
        <mxCell id="aNA76xLXzrA5z5TwCyWi-35" style="edgeStyle=orthogonalEdgeStyle;rounded=0;orthogonalLoop=1;jettySize=auto;html=1;exitX=1;exitY=0;exitDx=0;exitDy=0;entryX=0;entryY=0.5;entryDx=0;entryDy=0;" parent="1" source="aNA76xLXzrA5z5TwCyWi-5" target="aNA76xLXzrA5z5TwCyWi-33" edge="1">
          <mxGeometry relative="1" as="geometry">
            <Array as="points">
              <mxPoint x="-390" y="320" />
            </Array>
          </mxGeometry>
        </mxCell>
        <mxCell id="aNA76xLXzrA5z5TwCyWi-36" style="edgeStyle=orthogonalEdgeStyle;rounded=0;orthogonalLoop=1;jettySize=auto;html=1;exitX=1;exitY=0.5;exitDx=0;exitDy=0;" parent="1" source="aNA76xLXzrA5z5TwCyWi-5" target="aNA76xLXzrA5z5TwCyWi-34" edge="1">
          <mxGeometry relative="1" as="geometry" />
        </mxCell>
        <mxCell id="aNA76xLXzrA5z5TwCyWi-41" style="edgeStyle=orthogonalEdgeStyle;rounded=0;orthogonalLoop=1;jettySize=auto;html=1;entryX=0;entryY=0.5;entryDx=0;entryDy=0;" parent="1" source="aNA76xLXzrA5z5TwCyWi-5" target="aNA76xLXzrA5z5TwCyWi-32" edge="1">
          <mxGeometry relative="1" as="geometry">
            <Array as="points">
              <mxPoint x="-445" y="380" />
              <mxPoint x="-445" y="390" />
              <mxPoint x="-390" y="390" />
            </Array>
          </mxGeometry>
        </mxCell>
        <mxCell id="aNA76xLXzrA5z5TwCyWi-5" value="medico" style="rounded=1;whiteSpace=wrap;html=1;arcSize=0;" parent="1" vertex="1">
          <mxGeometry x="-620" y="320" width="120" height="60" as="geometry" />
        </mxCell>
        <mxCell id="aNA76xLXzrA5z5TwCyWi-58" style="edgeStyle=orthogonalEdgeStyle;rounded=0;orthogonalLoop=1;jettySize=auto;html=1;entryX=0;entryY=0.5;entryDx=0;entryDy=0;" parent="1" source="aNA76xLXzrA5z5TwCyWi-7" target="aNA76xLXzrA5z5TwCyWi-50" edge="1">
          <mxGeometry relative="1" as="geometry" />
        </mxCell>
        <mxCell id="aNA76xLXzrA5z5TwCyWi-60" style="edgeStyle=orthogonalEdgeStyle;rounded=0;orthogonalLoop=1;jettySize=auto;html=1;entryX=0;entryY=0.5;entryDx=0;entryDy=0;" parent="1" source="aNA76xLXzrA5z5TwCyWi-7" target="aNA76xLXzrA5z5TwCyWi-55" edge="1">
          <mxGeometry relative="1" as="geometry" />
        </mxCell>
        <mxCell id="aNA76xLXzrA5z5TwCyWi-61" style="edgeStyle=orthogonalEdgeStyle;rounded=0;orthogonalLoop=1;jettySize=auto;html=1;entryX=0;entryY=0.5;entryDx=0;entryDy=0;" parent="1" source="aNA76xLXzrA5z5TwCyWi-7" target="aNA76xLXzrA5z5TwCyWi-56" edge="1">
          <mxGeometry relative="1" as="geometry" />
        </mxCell>
        <mxCell id="aNA76xLXzrA5z5TwCyWi-62" style="edgeStyle=orthogonalEdgeStyle;rounded=0;orthogonalLoop=1;jettySize=auto;html=1;entryX=0;entryY=0.5;entryDx=0;entryDy=0;" parent="1" source="aNA76xLXzrA5z5TwCyWi-7" target="aNA76xLXzrA5z5TwCyWi-57" edge="1">
          <mxGeometry relative="1" as="geometry" />
        </mxCell>
        <mxCell id="aNA76xLXzrA5z5TwCyWi-7" value="Paciente" style="rounded=1;whiteSpace=wrap;html=1;arcSize=0;" parent="1" vertex="1">
          <mxGeometry x="490" y="330" width="120" height="60" as="geometry" />
        </mxCell>
        <mxCell id="aNA76xLXzrA5z5TwCyWi-17" style="edgeStyle=orthogonalEdgeStyle;rounded=0;orthogonalLoop=1;jettySize=auto;html=1;entryX=0.5;entryY=1;entryDx=0;entryDy=0;" parent="1" source="aNA76xLXzrA5z5TwCyWi-8" target="aNA76xLXzrA5z5TwCyWi-4" edge="1">
          <mxGeometry relative="1" as="geometry" />
        </mxCell>
        <mxCell id="aNA76xLXzrA5z5TwCyWi-8" value="Relação_1" style="html=1;whiteSpace=wrap;aspect=fixed;shape=isoRectangle;" parent="1" vertex="1">
          <mxGeometry x="-320" y="480" width="150" height="90" as="geometry" />
        </mxCell>
        <mxCell id="aNA76xLXzrA5z5TwCyWi-20" style="edgeStyle=orthogonalEdgeStyle;rounded=0;orthogonalLoop=1;jettySize=auto;html=1;entryX=0;entryY=0.5;entryDx=0;entryDy=0;" parent="1" source="aNA76xLXzrA5z5TwCyWi-9" target="aNA76xLXzrA5z5TwCyWi-7" edge="1">
          <mxGeometry relative="1" as="geometry" />
        </mxCell>
        <mxCell id="aNA76xLXzrA5z5TwCyWi-9" value="Relação_2" style="html=1;whiteSpace=wrap;aspect=fixed;shape=isoRectangle;" parent="1" vertex="1">
          <mxGeometry x="200" y="360" width="150" height="90" as="geometry" />
        </mxCell>
        <mxCell id="aNA76xLXzrA5z5TwCyWi-29" style="edgeStyle=orthogonalEdgeStyle;rounded=0;orthogonalLoop=1;jettySize=auto;html=1;entryX=0.171;entryY=-0.026;entryDx=0;entryDy=0;entryPerimeter=0;" parent="1" source="aNA76xLXzrA5z5TwCyWi-24" target="aNA76xLXzrA5z5TwCyWi-28" edge="1">
          <mxGeometry relative="1" as="geometry" />
        </mxCell>
        <mxCell id="aNA76xLXzrA5z5TwCyWi-24" value="Relação_3" style="html=1;whiteSpace=wrap;aspect=fixed;shape=isoRectangle;" parent="1" vertex="1">
          <mxGeometry x="-130" y="640" width="150" height="90" as="geometry" />
        </mxCell>
        <mxCell id="aNA76xLXzrA5z5TwCyWi-67" style="edgeStyle=orthogonalEdgeStyle;rounded=0;orthogonalLoop=1;jettySize=auto;html=1;" parent="1" source="aNA76xLXzrA5z5TwCyWi-28" target="aNA76xLXzrA5z5TwCyWi-63" edge="1">
          <mxGeometry relative="1" as="geometry" />
        </mxCell>
        <mxCell id="aNA76xLXzrA5z5TwCyWi-68" style="edgeStyle=orthogonalEdgeStyle;rounded=0;orthogonalLoop=1;jettySize=auto;html=1;entryX=0.5;entryY=1;entryDx=0;entryDy=0;" parent="1" source="aNA76xLXzrA5z5TwCyWi-28" target="aNA76xLXzrA5z5TwCyWi-65" edge="1">
          <mxGeometry relative="1" as="geometry" />
        </mxCell>
        <mxCell id="aNA76xLXzrA5z5TwCyWi-69" style="edgeStyle=orthogonalEdgeStyle;rounded=0;orthogonalLoop=1;jettySize=auto;html=1;entryX=0;entryY=0.75;entryDx=0;entryDy=0;" parent="1" source="aNA76xLXzrA5z5TwCyWi-28" target="aNA76xLXzrA5z5TwCyWi-66" edge="1">
          <mxGeometry relative="1" as="geometry" />
        </mxCell>
        <mxCell id="aNA76xLXzrA5z5TwCyWi-28" value="exame" style="rounded=1;whiteSpace=wrap;html=1;arcSize=0;" parent="1" vertex="1">
          <mxGeometry x="-50" y="960" width="120" height="60" as="geometry" />
        </mxCell>
        <mxCell id="aNA76xLXzrA5z5TwCyWi-30" value="endereço&lt;br&gt;" style="rounded=1;whiteSpace=wrap;html=1;arcSize=50;" parent="1" vertex="1">
          <mxGeometry x="-390" y="330" width="50" height="25" as="geometry" />
        </mxCell>
        <mxCell id="aNA76xLXzrA5z5TwCyWi-32" value="nome" style="rounded=1;whiteSpace=wrap;html=1;arcSize=50;" parent="1" vertex="1">
          <mxGeometry x="-390" y="380" width="50" height="25" as="geometry" />
        </mxCell>
        <mxCell id="aNA76xLXzrA5z5TwCyWi-33" value="crm" style="rounded=1;whiteSpace=wrap;html=1;arcSize=50;" parent="1" vertex="1">
          <mxGeometry x="-390" y="305" width="25" height="25" as="geometry" />
        </mxCell>
        <mxCell id="aNA76xLXzrA5z5TwCyWi-34" value="telefone&lt;br&gt;" style="rounded=1;whiteSpace=wrap;html=1;arcSize=50;" parent="1" vertex="1">
          <mxGeometry x="-390" y="355" width="50" height="25" as="geometry" />
        </mxCell>
        <mxCell id="aNA76xLXzrA5z5TwCyWi-44" value="observação&lt;br&gt;" style="rounded=1;whiteSpace=wrap;html=1;arcSize=50;" parent="1" vertex="1">
          <mxGeometry x="250" y="140" width="60" height="25" as="geometry" />
        </mxCell>
        <mxCell id="aNA76xLXzrA5z5TwCyWi-45" value="codigo&lt;br&gt;" style="rounded=1;whiteSpace=wrap;html=1;arcSize=50;" parent="1" vertex="1">
          <mxGeometry x="210" y="60" width="40" height="25" as="geometry" />
        </mxCell>
        <mxCell id="aNA76xLXzrA5z5TwCyWi-46" value="data" style="rounded=1;whiteSpace=wrap;html=1;arcSize=50;" parent="1" vertex="1">
          <mxGeometry x="260" y="220" width="30" height="25" as="geometry" />
        </mxCell>
        <mxCell id="aNA76xLXzrA5z5TwCyWi-50" value="cpf&lt;br&gt;" style="rounded=1;whiteSpace=wrap;html=1;arcSize=50;" parent="1" vertex="1">
          <mxGeometry x="650" y="295" width="60" height="25" as="geometry" />
        </mxCell>
        <mxCell id="aNA76xLXzrA5z5TwCyWi-55" value="endereço&lt;br&gt;" style="rounded=1;whiteSpace=wrap;html=1;arcSize=50;" parent="1" vertex="1">
          <mxGeometry x="650" y="330" width="60" height="25" as="geometry" />
        </mxCell>
        <mxCell id="aNA76xLXzrA5z5TwCyWi-56" value="telefone" style="rounded=1;whiteSpace=wrap;html=1;arcSize=50;" parent="1" vertex="1">
          <mxGeometry x="650" y="360" width="60" height="25" as="geometry" />
        </mxCell>
        <mxCell id="aNA76xLXzrA5z5TwCyWi-57" value="nome" style="rounded=1;whiteSpace=wrap;html=1;arcSize=50;" parent="1" vertex="1">
          <mxGeometry x="650" y="392.5" width="60" height="25" as="geometry" />
        </mxCell>
        <mxCell id="aNA76xLXzrA5z5TwCyWi-63" value="nome" style="rounded=1;whiteSpace=wrap;html=1;arcSize=50;" parent="1" vertex="1">
          <mxGeometry x="-10" y="850" width="60" height="25" as="geometry" />
        </mxCell>
        <mxCell id="aNA76xLXzrA5z5TwCyWi-65" value="codigo&lt;br&gt;" style="rounded=1;whiteSpace=wrap;html=1;arcSize=50;" parent="1" vertex="1">
          <mxGeometry x="30" y="885" width="60" height="25" as="geometry" />
        </mxCell>
        <mxCell id="aNA76xLXzrA5z5TwCyWi-66" value="resultado" style="rounded=1;whiteSpace=wrap;html=1;arcSize=50;" parent="1" vertex="1">
          <mxGeometry x="80" y="930" width="60" height="25" as="geometry" />
        </mxCell>
      </root>
    </mxGraphModel>
  </diagram>
  <diagram id="Hw2BJh1s3JnL3n-YHACc" name="Página-2">
    <mxGraphModel dx="1315" dy="757" grid="1" gridSize="10" guides="1" tooltips="1" connect="1" arrows="1" fold="1" page="1" pageScale="1" pageWidth="827" pageHeight="1169" math="0" shadow="0">
      <root>
        <mxCell id="0" />
        <mxCell id="1" parent="0" />
        <mxCell id="BAVFsfQ-8eyQMFKvz9UE-10" style="edgeStyle=orthogonalEdgeStyle;rounded=0;orthogonalLoop=1;jettySize=auto;html=1;" edge="1" parent="1" source="BAVFsfQ-8eyQMFKvz9UE-1" target="BAVFsfQ-8eyQMFKvz9UE-8">
          <mxGeometry relative="1" as="geometry" />
        </mxCell>
        <mxCell id="BAVFsfQ-8eyQMFKvz9UE-1" value="Cliente&lt;br&gt;" style="rounded=0;whiteSpace=wrap;html=1;" vertex="1" parent="1">
          <mxGeometry x="910" y="40" width="120" height="60" as="geometry" />
        </mxCell>
        <mxCell id="BAVFsfQ-8eyQMFKvz9UE-39" style="edgeStyle=orthogonalEdgeStyle;rounded=0;orthogonalLoop=1;jettySize=auto;html=1;entryX=0;entryY=0.5;entryDx=0;entryDy=0;" edge="1" parent="1" source="BAVFsfQ-8eyQMFKvz9UE-2" target="BAVFsfQ-8eyQMFKvz9UE-37">
          <mxGeometry relative="1" as="geometry">
            <Array as="points">
              <mxPoint x="1070" y="680" />
            </Array>
          </mxGeometry>
        </mxCell>
        <mxCell id="BAVFsfQ-8eyQMFKvz9UE-40" style="edgeStyle=orthogonalEdgeStyle;rounded=0;orthogonalLoop=1;jettySize=auto;html=1;entryX=0;entryY=0.5;entryDx=0;entryDy=0;" edge="1" parent="1" source="BAVFsfQ-8eyQMFKvz9UE-2" target="BAVFsfQ-8eyQMFKvz9UE-35">
          <mxGeometry relative="1" as="geometry">
            <Array as="points">
              <mxPoint x="1000" y="710" />
              <mxPoint x="1000" y="710" />
            </Array>
          </mxGeometry>
        </mxCell>
        <mxCell id="BAVFsfQ-8eyQMFKvz9UE-41" style="edgeStyle=orthogonalEdgeStyle;rounded=0;orthogonalLoop=1;jettySize=auto;html=1;entryX=0.04;entryY=0.609;entryDx=0;entryDy=0;entryPerimeter=0;" edge="1" parent="1" source="BAVFsfQ-8eyQMFKvz9UE-2" target="BAVFsfQ-8eyQMFKvz9UE-36">
          <mxGeometry relative="1" as="geometry">
            <Array as="points">
              <mxPoint x="930" y="749" />
            </Array>
          </mxGeometry>
        </mxCell>
        <mxCell id="BAVFsfQ-8eyQMFKvz9UE-2" value="Acidentes" style="rounded=0;whiteSpace=wrap;html=1;" vertex="1" parent="1">
          <mxGeometry x="860" y="667.5" width="120" height="60" as="geometry" />
        </mxCell>
        <mxCell id="BAVFsfQ-8eyQMFKvz9UE-32" style="edgeStyle=orthogonalEdgeStyle;rounded=0;orthogonalLoop=1;jettySize=auto;html=1;entryX=1;entryY=0.5;entryDx=0;entryDy=0;" edge="1" parent="1" source="BAVFsfQ-8eyQMFKvz9UE-3" target="BAVFsfQ-8eyQMFKvz9UE-30">
          <mxGeometry relative="1" as="geometry">
            <Array as="points">
              <mxPoint x="480" y="210" />
            </Array>
          </mxGeometry>
        </mxCell>
        <mxCell id="BAVFsfQ-8eyQMFKvz9UE-33" style="edgeStyle=orthogonalEdgeStyle;rounded=0;orthogonalLoop=1;jettySize=auto;html=1;" edge="1" parent="1" source="BAVFsfQ-8eyQMFKvz9UE-3" target="BAVFsfQ-8eyQMFKvz9UE-31">
          <mxGeometry relative="1" as="geometry">
            <Array as="points">
              <mxPoint x="520" y="248" />
              <mxPoint x="520" y="248" />
            </Array>
          </mxGeometry>
        </mxCell>
        <mxCell id="BAVFsfQ-8eyQMFKvz9UE-3" value="Apolice" style="rounded=0;whiteSpace=wrap;html=1;" vertex="1" parent="1">
          <mxGeometry x="540" y="200" width="120" height="60" as="geometry" />
        </mxCell>
        <mxCell id="BAVFsfQ-8eyQMFKvz9UE-12" style="edgeStyle=orthogonalEdgeStyle;rounded=0;orthogonalLoop=1;jettySize=auto;html=1;" edge="1" parent="1" source="BAVFsfQ-8eyQMFKvz9UE-4" target="BAVFsfQ-8eyQMFKvz9UE-7">
          <mxGeometry relative="1" as="geometry" />
        </mxCell>
        <mxCell id="BAVFsfQ-8eyQMFKvz9UE-28" style="edgeStyle=orthogonalEdgeStyle;rounded=0;orthogonalLoop=1;jettySize=auto;html=1;entryX=-0.028;entryY=0.619;entryDx=0;entryDy=0;entryPerimeter=0;" edge="1" parent="1" source="BAVFsfQ-8eyQMFKvz9UE-4" target="BAVFsfQ-8eyQMFKvz9UE-26">
          <mxGeometry relative="1" as="geometry">
            <Array as="points">
              <mxPoint x="1020" y="352" />
              <mxPoint x="1020" y="352" />
            </Array>
          </mxGeometry>
        </mxCell>
        <mxCell id="BAVFsfQ-8eyQMFKvz9UE-29" style="edgeStyle=orthogonalEdgeStyle;rounded=0;orthogonalLoop=1;jettySize=auto;html=1;" edge="1" parent="1" source="BAVFsfQ-8eyQMFKvz9UE-4" target="BAVFsfQ-8eyQMFKvz9UE-25">
          <mxGeometry relative="1" as="geometry">
            <Array as="points">
              <mxPoint x="1060" y="390" />
              <mxPoint x="1060" y="390" />
            </Array>
          </mxGeometry>
        </mxCell>
        <mxCell id="BAVFsfQ-8eyQMFKvz9UE-34" style="edgeStyle=orthogonalEdgeStyle;rounded=0;orthogonalLoop=1;jettySize=auto;html=1;entryX=0.6;entryY=0;entryDx=0;entryDy=0;entryPerimeter=0;" edge="1" parent="1" source="BAVFsfQ-8eyQMFKvz9UE-4" target="BAVFsfQ-8eyQMFKvz9UE-6">
          <mxGeometry relative="1" as="geometry" />
        </mxCell>
        <mxCell id="BAVFsfQ-8eyQMFKvz9UE-4" value="Carro" style="rounded=0;whiteSpace=wrap;html=1;" vertex="1" parent="1">
          <mxGeometry x="900" y="340" width="120" height="60" as="geometry" />
        </mxCell>
        <mxCell id="BAVFsfQ-8eyQMFKvz9UE-38" style="edgeStyle=orthogonalEdgeStyle;rounded=0;orthogonalLoop=1;jettySize=auto;html=1;entryX=0.5;entryY=0;entryDx=0;entryDy=0;" edge="1" parent="1" source="BAVFsfQ-8eyQMFKvz9UE-6" target="BAVFsfQ-8eyQMFKvz9UE-2">
          <mxGeometry relative="1" as="geometry" />
        </mxCell>
        <mxCell id="BAVFsfQ-8eyQMFKvz9UE-6" value="Relação_3&lt;br&gt;" style="rhombus;whiteSpace=wrap;html=1;" vertex="1" parent="1">
          <mxGeometry x="890" y="480" width="80" height="60" as="geometry" />
        </mxCell>
        <mxCell id="BAVFsfQ-8eyQMFKvz9UE-13" style="edgeStyle=orthogonalEdgeStyle;rounded=0;orthogonalLoop=1;jettySize=auto;html=1;entryX=0.5;entryY=1;entryDx=0;entryDy=0;" edge="1" parent="1" source="BAVFsfQ-8eyQMFKvz9UE-7" target="BAVFsfQ-8eyQMFKvz9UE-3">
          <mxGeometry relative="1" as="geometry" />
        </mxCell>
        <mxCell id="BAVFsfQ-8eyQMFKvz9UE-7" value="Relação_2&lt;br&gt;" style="rhombus;whiteSpace=wrap;html=1;" vertex="1" parent="1">
          <mxGeometry x="660" y="340" width="80" height="60" as="geometry" />
        </mxCell>
        <mxCell id="BAVFsfQ-8eyQMFKvz9UE-11" style="edgeStyle=orthogonalEdgeStyle;rounded=0;orthogonalLoop=1;jettySize=auto;html=1;" edge="1" parent="1" source="BAVFsfQ-8eyQMFKvz9UE-8" target="BAVFsfQ-8eyQMFKvz9UE-3">
          <mxGeometry relative="1" as="geometry" />
        </mxCell>
        <mxCell id="BAVFsfQ-8eyQMFKvz9UE-8" value="Relação_1&lt;br&gt;" style="rhombus;whiteSpace=wrap;html=1;" vertex="1" parent="1">
          <mxGeometry x="640" y="40" width="80" height="60" as="geometry" />
        </mxCell>
        <mxCell id="BAVFsfQ-8eyQMFKvz9UE-18" style="edgeStyle=orthogonalEdgeStyle;rounded=0;orthogonalLoop=1;jettySize=auto;html=1;entryX=0.999;entryY=0.119;entryDx=0;entryDy=0;entryPerimeter=0;" edge="1" parent="1" source="BAVFsfQ-8eyQMFKvz9UE-14" target="BAVFsfQ-8eyQMFKvz9UE-1">
          <mxGeometry relative="1" as="geometry" />
        </mxCell>
        <mxCell id="BAVFsfQ-8eyQMFKvz9UE-14" value="Nome" style="ellipse;whiteSpace=wrap;html=1;" vertex="1" parent="1">
          <mxGeometry x="1060" y="30" width="40" height="35" as="geometry" />
        </mxCell>
        <mxCell id="BAVFsfQ-8eyQMFKvz9UE-19" style="edgeStyle=orthogonalEdgeStyle;rounded=0;orthogonalLoop=1;jettySize=auto;html=1;" edge="1" parent="1" source="BAVFsfQ-8eyQMFKvz9UE-15" target="BAVFsfQ-8eyQMFKvz9UE-1">
          <mxGeometry relative="1" as="geometry">
            <Array as="points">
              <mxPoint x="1050" y="70" />
              <mxPoint x="1050" y="70" />
            </Array>
          </mxGeometry>
        </mxCell>
        <mxCell id="BAVFsfQ-8eyQMFKvz9UE-15" value="Número" style="ellipse;whiteSpace=wrap;html=1;" vertex="1" parent="1">
          <mxGeometry x="1095" y="52.5" width="65" height="35" as="geometry" />
        </mxCell>
        <mxCell id="BAVFsfQ-8eyQMFKvz9UE-20" style="edgeStyle=orthogonalEdgeStyle;rounded=0;orthogonalLoop=1;jettySize=auto;html=1;" edge="1" parent="1" source="BAVFsfQ-8eyQMFKvz9UE-16" target="BAVFsfQ-8eyQMFKvz9UE-1">
          <mxGeometry relative="1" as="geometry">
            <Array as="points">
              <mxPoint x="1060" y="90" />
              <mxPoint x="1060" y="90" />
            </Array>
          </mxGeometry>
        </mxCell>
        <mxCell id="BAVFsfQ-8eyQMFKvz9UE-16" value="Endereço" style="ellipse;whiteSpace=wrap;html=1;" vertex="1" parent="1">
          <mxGeometry x="1160" y="80" width="60" height="35" as="geometry" />
        </mxCell>
        <mxCell id="BAVFsfQ-8eyQMFKvz9UE-25" value="Marca" style="ellipse;whiteSpace=wrap;html=1;" vertex="1" parent="1">
          <mxGeometry x="1080" y="372.5" width="60" height="35" as="geometry" />
        </mxCell>
        <mxCell id="BAVFsfQ-8eyQMFKvz9UE-26" value="Registro" style="ellipse;whiteSpace=wrap;html=1;" vertex="1" parent="1">
          <mxGeometry x="1080" y="332.5" width="60" height="35" as="geometry" />
        </mxCell>
        <mxCell id="BAVFsfQ-8eyQMFKvz9UE-30" value="Valor" style="ellipse;whiteSpace=wrap;html=1;" vertex="1" parent="1">
          <mxGeometry x="420" y="190" width="60" height="35" as="geometry" />
        </mxCell>
        <mxCell id="BAVFsfQ-8eyQMFKvz9UE-31" value="Número" style="ellipse;whiteSpace=wrap;html=1;" vertex="1" parent="1">
          <mxGeometry x="420" y="230" width="60" height="35" as="geometry" />
        </mxCell>
        <mxCell id="BAVFsfQ-8eyQMFKvz9UE-35" value="Hora" style="ellipse;whiteSpace=wrap;html=1;" vertex="1" parent="1">
          <mxGeometry x="1050" y="692.5" width="60" height="35" as="geometry" />
        </mxCell>
        <mxCell id="BAVFsfQ-8eyQMFKvz9UE-36" value="Local" style="ellipse;whiteSpace=wrap;html=1;" vertex="1" parent="1">
          <mxGeometry x="1030" y="727.5" width="60" height="35" as="geometry" />
        </mxCell>
        <mxCell id="BAVFsfQ-8eyQMFKvz9UE-37" value="Data" style="ellipse;whiteSpace=wrap;html=1;" vertex="1" parent="1">
          <mxGeometry x="1070" y="660" width="60" height="35" as="geometry" />
        </mxCell>
      </root>
    </mxGraphModel>
  </diagram>
</mxfile>
